<?xml version="1.0" encoding="utf-8"?>
<!-- Generator: Adobe Illustrator 22.0.1, SVG Export Plug-In . SVG Version: 6.00 Build 0)  -->
<svg version="1.1" id="Layer_1" xmlns="http://www.w3.org/2000/svg" xmlns:xlink="http://www.w3.org/1999/xlink" x="0px" y="0px"
	 viewBox="0 0 70.1 70.1" style="enable-background:new 0 0 70.1 70.1;" xml:space="preserve">
<style type="text/css">
	.st0{fill:#1A1A1A;}
</style>
<title>map-pin-orange</title>
<g transform="translate(0,-952.36218)">
	<path class="st0" d="M64.5,952.4c-3,0-6.5,1.8-9.5,4.7c-4.9,4.4-9.6,9.3-14.2,14.2l-38-7.6L0,969.4l28.5,14.2l-16.1,19
		c-3.7-1.2-9.5-2.6-9.5,1.9c0,0.9,0.2,1.8,0.9,2.8l11.4,11.4c1,0.7,2,0.9,2.8,0.9c4.5,0,3.1-5.8,1.9-9.5l19-16.1l14.2,28.5l5.7-2.8
		l-7.6-38c5-4.6,9.9-9.4,14.2-14.2c3-3,4.8-6.5,4.7-9.5c0-1.6-0.5-3.1-1.5-4.1C67.6,952.9,66.1,952.4,64.5,952.4z"/>
</g>
</svg>
