<svg xmlns="http://www.w3.org/2000/svg" width="70.56mm" height="70.56mm" viewBox="0 0 200 200"><defs><style>.a{fill:#ff8c00;fill-rule:evenodd}.b{opacity:.8}.c{fill:#fff}</style></defs><title>icon-three-sixty</title><path class="a" d="M100 0A100 100 0 1 1 0 100 100 100 0 0 1 100 0z"/><path class="b c" d="M100 31.76a68 68 0 0 1 41 13.65l-7.37 7.37a2.41 2.41 0 0 0 1.47 4.1l20.58 2h.23a2.41 2.41 0 0 0 2.4-2.64l-2-20.58a2.41 2.41 0 0 0-4.1-1.47l-6 6A75.46 75.46 0 0 0 24.53 100c0 2.44.12 4.87.35 7.22a3.62 3.62 0 0 0 3.59 3.26h.36a3.62 3.62 0 0 0 3.24-4c-.21-2.11-.31-4.3-.31-6.51A68.31 68.31 0 0 1 100 31.76zm75.12 61a3.62 3.62 0 0 0-7.2.71c.21 2.1.31 4.29.31 6.5A68.25 68.25 0 0 1 57.9 153.72l7-7a2.41 2.41 0 0 0-1.47-4.1l-20.58-2a2.41 2.41 0 0 0-2.63 2.63l2 20.58a2.41 2.41 0 0 0 4.1 1.47l6.46-6.46A75.47 75.47 0 0 0 175.47 100c0-2.45-.12-4.88-.35-7.22z"/><path class="c" d="M81.7 86.52a12.47 12.47 0 0 1-2.21 7.54 11.36 11.36 0 0 1-6.25 4.22v.26a10.26 10.26 0 0 1 9.41 11.13q0 6.58-4.09 10.48t-11.18 3.91a22.72 22.72 0 0 1-10.61-2.25v-7.94a19.93 19.93 0 0 0 4.66 2.05 16.81 16.81 0 0 0 4.82.75 8.23 8.23 0 0 0 5.7-1.74q1.92-1.74 1.92-5.52 0-7.13-8.76-7.13H62.4v-6.61H65a8.71 8.71 0 0 0 5.94-1.82A6.87 6.87 0 0 0 73 88.41a6.17 6.17 0 0 0-1.32-4.28 4.79 4.79 0 0 0-3.73-1.45 10.7 10.7 0 0 0-7.16 3.13l-4-5.86a16.46 16.46 0 0 1 12.14-4.82q6 0 9.41 3a10.66 10.66 0 0 1 3.36 8.39zM87.32 103.19q0-14.55 4.53-21.27t13.8-6.72a24.16 24.16 0 0 1 2.93.18 18.24 18.24 0 0 1 2.21.37v7.32a19.57 19.57 0 0 0-4.43-.52 10.55 10.55 0 0 0-6.09 1.63A10 10 0 0 0 96.66 89a30.24 30.24 0 0 0-1.5 9.1h.36a9.14 9.14 0 0 1 3.13-4.09 7.83 7.83 0 0 1 4.59-1.38 8.54 8.54 0 0 1 7.45 3.89q2.67 3.89 2.67 11.12 0 7.55-3.52 12a11.55 11.55 0 0 1-9.54 4.41 10.73 10.73 0 0 1-9.68-5.27q-3.3-5.27-3.3-15.59zm13.05 13.41a3.54 3.54 0 0 0 3.14-2.15q1.19-2.15 1.19-6.71a13.24 13.24 0 0 0-1.06-5.81 3.41 3.41 0 0 0-3.21-2.13 3.57 3.57 0 0 0-3.13 2 9.53 9.53 0 0 0-1.2 5 18.52 18.52 0 0 0 1.12 7.28q1.14 2.52 3.15 2.52zM143.56 99.61q0 12.92-3.11 18.69t-10 5.76q-6.9 0-9.91-5.79t-3-18.65q0-12.89 3.16-18.72a10.5 10.5 0 0 1 9.9-5.83q6.87 0 9.93 5.7t3.03 18.84zm-17.19 0q0 10 .86 13.46t3.27 3.47A2.8 2.8 0 0 0 133 115a13.12 13.12 0 0 0 1.29-5 102.15 102.15 0 0 0 .39-10.47q0-9.83-.91-13.41t-3.29-3.58q-2.41 0-3.27 3.56t-.84 13.51z"/></svg>