<?xml version="1.0" encoding="utf-8"?>
<!-- Generator: Adobe Illustrator 21.1.0, SVG Export Plug-In . SVG Version: 6.00 Build 0)  -->
<svg version="1.1" id="Layer_1" xmlns="http://www.w3.org/2000/svg" xmlns:xlink="http://www.w3.org/1999/xlink" x="0px" y="0px"
	 viewBox="0 0 7.7 9.9" style="enable-background:new 0 0 7.7 9.9;" xml:space="preserve">
<style type="text/css">
	.st0{fill:#222222;}
</style>
<title>map-pin-white</title>
<path class="st0" d="M3.9,5.4C3,5.4,2.3,4.7,2.3,3.9C2.3,3,3,2.3,3.9,2.3S5.4,3,5.4,3.9c0,0,0,0,0,0C5.4,4.7,4.7,5.4,3.9,5.4
	L3.9,5.4 M3.9,0C1.7,0,0,1.7,0,3.8c0,0,0,0,0,0l0,0c0,3,3.8,6,3.9,6l0,0c0.1-0.1,3.9-3,3.9-6C7.7,1.7,6,0,3.9,0L3.9,0"/>
</svg>
