<?xml version="1.0" encoding="utf-8"?>
<!-- Generator: Adobe Illustrator 22.0.0, SVG Export Plug-In . SVG Version: 6.00 Build 0)  -->
<svg version="1.1" id="Layer_1" xmlns="http://www.w3.org/2000/svg" xmlns:xlink="http://www.w3.org/1999/xlink" x="0px" y="0px"
	 viewBox="0 0 36.2 36.2" style="enable-background:new 0 0 36.2 36.2;" xml:space="preserve">
<style type="text/css">
	.st0{fill:#F68C1F;}
</style>
<path class="st0" d="M35.6,32.6L27.1,24c4.4-5.9,3.9-14.3-1.4-19.6C22.8,1.6,19,0,15,0S7.2,1.6,4.4,4.4c-5.9,5.9-5.9,15.4,0,21.3
	c2.8,2.8,6.6,4.4,10.6,4.4c3.3,0,6.4-1.1,9-3l8.6,8.6c0.4,0.4,1,0.6,1.5,0.6s1.1-0.2,1.5-0.6C36.5,34.8,36.5,33.4,35.6,32.6z
	 M7.4,22.6c-4.2-4.2-4.2-11,0-15.2c2-2,4.7-3.1,7.6-3.1s5.6,1.1,7.6,3.1c4.2,4.2,4.2,11,0,15.2c-2,2-4.7,3.1-7.6,3.1
	S9.5,24.7,7.4,22.6z"/>
</svg>
